<svg xmlns="http://www.w3.org/2000/svg" viewBox="0 0 36 36" fill="none"><path d="M 27.0212 9.6767 C 25.3107 8.8797 23.5079 8.3188 21.6584 8 C 21.4062 8.4617 21.1749 8.9345 20.9708 9.4184 C 19.003 9.1214 16.9974 9.1214 15.0283 9.4184 C 14.819 8.9345 14.589 8.4617 14.3368 8.0055 C 12.4807 8.3244 10.6779 8.8851 8.9675 9.6823 C 5.5673 14.7785 4.6497 19.7538 5.1111 24.652 C 7.101 26.1418 9.3262 27.2743 11.6918 28 C 12.2234 27.2743 12.6952 26.4993 13.0981 25.691 C 12.33 25.3997 11.5852 25.0424 10.8768 24.6135 C 11.0653 24.4762 11.2473 24.3387 11.424 24.1847 C 15.5911 26.1749 20.408 26.1749 24.5763 24.1847 C 24.7531 24.3332 24.9351 24.4762 25.1171 24.6135 C 24.41 25.0369 23.6639 25.3997 22.897 25.691 C 23.3052 26.4993 23.7718 27.2689 24.3021 27.9945 C 26.6677 27.2689 28.8929 26.1364 30.8828 24.6466 H 30.8893 C 31.43 18.9731 29.9665 14.0473 27.0212 9.6767 Z M 13.6804 21.6383 C 12.3975 21.6383 11.3408 20.4453 11.3408 18.994 C 11.3408 17.5427 12.3715 16.3497 13.6804 16.3497 C 14.9893 16.3497 16.0395 17.5427 16.0187 18.994 C 16.0187 20.4453 14.9828 21.6383 13.6804 21.6383 Z M 22.3161 21.6383 C 21.0332 21.6383 19.9765 20.4453 19.9765 18.994 C 19.9765 17.5427 21.0124 16.3497 22.3161 16.3497 C 23.6184 16.3497 24.6751 17.5427 24.6543 18.994 C 24.6543 20.4453 23.6184 21.6383 22.3161 21.6383 Z" fill="currentColor"></path></svg>