<svg xmlns="http://www.w3.org/2000/svg" viewBox="0 0 36 36" fill="none">
<path d="m23.9557 3H12.0343C10.6158 3 9.47 4.1458 9.47 5.5643v24.8657c0 1.4186 1.1458 2.5643 2.5643 2.5643h11.9077c1.4186 0 2.5643-1.1458 2.5643-2.5643V5.5643c0-1.4186-1.1458-2.5643-2.5643-2.5643Zm-8.8933 1.2003h5.8788c.3819 0 .682.3001.682.682s-.3001.682-.682.682h-5.8788c-.3819 0-.682-.3001-.682-.682s.3001-.682.682-.682Zm2.9462 26.5844c-.7502 0-1.364-.6138-1.364-1.364s.6138-1.364 1.364-1.364 1.364.6138 1.364 1.364-.6138 1.364-1.364 1.364Zm6.7927-4.433H11.2568V7.2693h13.5172v19.096Z" fill="currentColor"></path></svg>