<svg xmlns="http://www.w3.org/2000/svg" viewBox="0 0 36 36" fill="none">
<path d="m23.3626 4.5H12.6124C11.3332 4.5 10.3 5.5332 10.3 6.8124v22.4229c0 1.2792 1.0332 2.3124 2.3124 2.3124h10.7379c1.2792 0 2.3124-1.0332 2.3124-2.3124V6.8124c0-1.2792-1.0332-2.3124-2.3124-2.3124Zm-8.0196 1.0824h5.3013c.3444 0 .615.2706.615.615s-.2706.615-.615.615h-5.3013c-.3444 0-.615-.2706-.615-.615s.2706-.615.615-.615Zm2.6568 23.9727c-.6765 0-1.23-.5535-1.23-1.23s.5535-1.23 1.23-1.23 1.23.5535 1.23 1.23-.5535 1.23-1.23 1.23Zm6.1254-3.9975H11.9113V8.3499h12.1893v17.22Z" fill="currentColor"></path></svg>