<svg xmlns="http://www.w3.org/2000/svg" viewBox="0 0 36 36" fill="none"><path d="M 29.3929 15.1786 H 27.6786 V 10.6071 C 27.6786 9.35 26.65 8.3214 25.3929 8.3214 H 20.8214 V 6.6071 C 20.8214 5.03 19.5414 3.75 17.9643 3.75 C 16.3871 3.75 15.1071 5.03 15.1071 6.6071 V 8.3214 H 10.5357 C 9.2786 8.3214 8.2614 9.35 8.2614 10.6071 V 14.95 H 9.9643 C 11.6671 14.95 13.05 16.3329 13.05 18.0357 c 0 1.7029 -1.3829 3.0857 -3.0857 3.0857 H 8.25 v 4.3429 C 8.25 26.7214 9.2786 27.75 10.5357 27.75 H 14.8786 V 26.0357 C 14.8786 24.3329 16.2614 22.95 17.9643 22.95 C 19.6671 22.95 21.05 24.3329 21.05 26.0357 V 27.75 h 4.3429 C 26.65 27.75 27.6786 26.7214 27.6786 25.4643 v -4.5714 h 1.7143 C 30.97 20.8929 32.25 19.6129 32.25 18.0357 C 32.25 16.4586 30.97 15.1786 29.3929 15.1786 Z" fill="currentColor"></path></svg>