<svg xmlns="http://www.w3.org/2000/svg" width="24px" height="24px" viewBox="0 0 256 256">
<path d="m93.785 52.265c-0.946 0-2.357 0.63-3.304 1.577l-50.197 44.18c-0.947 0.789-2.831 1.578-4.093 1.578h-26.824c-1.263 0-2.367 1.106-2.367 2.367v52.069c0 1.264 1.104 2.367 2.367 2.367h26.823c1.262 0 3.146 0.632 4.093 1.578l50.197 44.181c0.947 0.789 2.516 1.578 3.304 1.578s1.578-1.104 1.578-2.367v-146.74c1e-3 -1.262-0.631-2.366-1.577-2.366z"/>
<path d="m193.83 30.402c24.959 24.958 40.349 59.403 40.349 97.604 0 38.199-15.388 72.645-40.349 97.603l9.916 9.916c28.067-28.067 44.263-64.673 44.263-107.52 0-42.847-16.196-79.455-44.263-107.52"/>
<path d="m175.74 47.628-8.924 8.924c18.271 18.27 29.536 43.484 29.536 71.448s-11.264 53.178-29.536 71.448l8.924 8.924c20.546-20.546 33.234-49.008 33.234-80.374s-12.688-59.829-33.234-80.374v4e-3z"/>
<path d="m148.91 74.454-8.925 8.925c11.488 11.488 18.491 27.236 18.491 44.624s-7.054 33.281-18.491 44.575l8.875 8.975c13.811-13.635 22.239-32.753 22.239-53.55s-8.432-39.793-22.189-53.55v1e-3z"/>
<path d="m121.99 101.23-8.778 9.073c4.641 4.516 7.397 10.706 7.397 17.702 0 6.995-2.755 13.186-7.397 17.702l8.778 9.073c7.035-6.844 11.243-16.413 11.243-26.775 0-10.361-4.208-19.929-11.243-26.775z"/>
<g fill="none" stroke="#fff" stroke-miterlimit="10" stroke-width="0">
<line x1="137" x2="223.17" y1="170.67" y2="84.5"/>
<line x1="137" x2="223.17" y1="84.5" y2="170.67"/>
</g>
</svg>
