<svg xmlns="http://www.w3.org/2000/svg" viewBox="0 0 36 36" fill="none"><path fill-rule="evenodd" clip-rule="evenodd" d="M32.62 9.14C32.62 9.14 28.5 5 18 5C7.5 5 3.38 9.14 3.38 9.14C3.38 9.14 0 20.56 0 25.2C0 28.68 5 31 5 31L11 25H25L31 31C31 31 36 28.68 36 25.2C36 20.56 32.62 9.14 32.62 9.14ZM15 17H12V20H9V17H6V14H9V11H12V14H15V17ZM21.5 20C21.0055 20 20.5222 19.8534 20.1111 19.5787C19.7 19.304 19.3795 18.9135 19.1903 18.4567C19.0011 17.9999 18.9516 17.4972 19.048 17.0123C19.1445 16.5273 19.3826 16.0819 19.7322 15.7322C20.0819 15.3826 20.5273 15.1445 21.0123 15.048C21.4972 14.9516 21.9999 15.0011 22.4567 15.1903C22.9135 15.3795 23.304 15.7 23.5787 16.1111C23.8534 16.5222 24 17.0055 24 17.5C24 17.8283 23.9353 18.1534 23.8097 18.4567C23.6841 18.76 23.4999 19.0356 23.2678 19.2678C23.0356 19.4999 22.76 19.6841 22.4567 19.8097C22.1534 19.9353 21.8283 20 21.5 20ZM27.5 16C27.0055 16 26.5222 15.8534 26.1111 15.5787C25.7 15.304 25.3795 14.9135 25.1903 14.4567C25.0011 13.9999 24.9516 13.4972 25.048 13.0123C25.1445 12.5273 25.3826 12.0819 25.7322 11.7322C26.0819 11.3826 26.5273 11.1445 27.0123 11.048C27.4972 10.9516 27.9999 11.0011 28.4567 11.1903C28.9135 11.3795 29.304 11.7 29.5787 12.1111C29.8534 12.5222 30 13.0055 30 13.5C30 14.163 29.7366 14.7989 29.2678 15.2678C28.7989 15.7366 28.163 16 27.5 16Z" fill="currentColor"></path></svg>