<svg xmlns="http://www.w3.org/2000/svg" data-name="Layer 1" viewBox="0 0 36 36"><path d="M18 34.32C9 34.32 1.68 27 1.68 18S9 1.68 18 1.68 34.32 9 34.32 18 27 34.32 18 34.32Zm0-31.63c-8.44 0-15.32 6.87-15.32 15.32S9.55 33.33 18 33.33s15.32-6.87 15.32-15.32S26.45 2.68 18 2.68Zm7.98 7.95c-1.51-.71-3.11-1.2-4.74-1.48-.22.41-.43.83-.61 1.25-1.74-.26-3.51-.26-5.26 0-.19-.43-.39-.85-.61-1.25-1.64.28-3.24.78-4.75 1.48C7 15.15 6.19 19.55 6.6 23.88c1.76 1.32 3.73 2.32 5.82 2.96.47-.64.89-1.33 1.24-2.04-.68-.26-1.34-.57-1.96-.95.17-.12.33-.24.48-.38 3.69 1.76 7.95 1.76 11.63 0 .16.13.32.26.48.38-.63.37-1.29.7-1.96.95.36.72.77 1.4 1.24 2.04 2.09-.64 4.06-1.64 5.82-2.96.48-5.02-.82-9.38-3.42-13.24Zm-11.8 10.58c-1.13 0-2.07-1.06-2.07-2.34 0-1.28.91-2.34 2.07-2.34 1.16 0 2.09 1.06 2.07 2.34 0 1.28-.92 2.34-2.07 2.34zm7.64 0c-1.13 0-2.07-1.06-2.07-2.34 0-1.28.92-2.34 2.07-2.34s2.09 1.06 2.07 2.34c0 1.28-.92 2.34-2.07 2.34z"/></svg>