<svg xmlns="http://www.w3.org/2000/svg" viewBox="0 0 36 36" fill="none">
<path d="m 22.37 7 H 13.63 C 12.59 7 11.75 7.84 11.75 8.88 v 18.23 c 0 1.04 0.84 1.88 1.88 1.88 h 8.73 c 1.04 0 1.88 -0.84 1.88 -1.88 V 8.88 c 0 -1.04 -0.84 -1.88 -1.88 -1.88 Z m -6.52 0.88 h 4.31 c 0.28 0 0.5 0.22 0.5 0.5 s -0.22 0.5 -0.5 0.5 h -4.31 c -0.28 0 -0.5 -0.22 -0.5 -0.5 s 0.22 -0.5 0.5 -0.5 Z m 2.16 19.49 c -0.55 0 -1 -0.45 -1 -1 s 0.45 -1 1 -1 s 1 0.45 1 1 s -0.45 1 -1 1 Z m 4.98 -3.25 H 13.06 V 10.13 h 9.91 v 14 Z" fill="currentColor"></path></svg>