<svg xmlns="http://www.w3.org/2000/svg" viewBox="0 0 36 36" fill="none"><path d="M 21.2343 6 C 21.0272 6 20.8201 6.0783 20.6621 6.2363 L 14.2387 12.6599 L 23.3396 21.7611 L 29.763 15.3375 c 0.316 -0.3159 0.316 -0.8285 0 -1.1445 L 28.5482 12.9802 C 28.2736 12.7056 27.8421 12.6643 27.521 12.8825 l -2.5526 1.7343 l 1.7245 -2.5702 c 0.2154 -0.321 0.1738 -0.7501 -0.0996 -1.0234 L 23.9587 8.3905 C 23.7155 8.1474 23.3447 8.0831 23.0349 8.2323 L 22.5799 8.453 L 22.7986 7.9687 C 22.9369 7.662 22.8705 7.3023 22.6326 7.0644 L 21.8065 6.2363 C 21.6485 6.0783 21.4414 6 21.2343 6 Z M 13.0434 13.8552 L 11.1842 15.7145 c -0.1517 0.1517 -0.2363 0.3577 -0.2363 0.5722 c 0 0.2146 0.0845 0.4206 0.2363 0.5722 l 1.7636 1.7636 c 0.3398 0.3398 0.5055 0.8093 0.4531 1.2871 c -0.0524 0.4775 -0.3168 0.8994 -0.7226 1.1582 c -5.1821 3.3034 -5.6651 3.7864 -5.8238 3.9452 c -1.1392 1.1392 -1.1392 2.9934 0 4.1326 c 1.1403 1.1404 2.9946 1.1381 4.1325 0 c 0.1588 -0.1588 0.642 -0.642 3.945 -5.824 c 0.2581 -0.4048 0.6805 -0.6682 1.1581 -0.7207 c 0.4792 -0.0523 0.948 0.1122 1.287 0.4512 l 1.7636 1.7636 l 1.1445 0 l 1.8592 -1.8593 z M 8.9714 25.8859 c 0.2927 0 0.5852 0.1106 0.8085 0.334 c 0.4466 0.4466 0.4466 1.1705 0 1.6171 c -0.4466 0.4467 -1.1705 0.4467 -1.6171 0 c -0.4466 -0.4467 -0.4466 -1.1705 0 -1.6171 c 0.2233 -0.2233 0.5159 -0.334 0.8085 -0.334 z" fill="currentColor"></path></svg>