<svg xmlns="http://www.w3.org/2000/svg" width="24" height="24" viewBox="0 0 256 255.999"><path d="M93.785 52.265c-.946 0-2.357.63-3.304 1.577l-50.197 44.18c-.947.789-2.831 1.578-4.093 1.578H9.367C8.104 99.6 7 100.706 7 101.967v52.069c0 1.264 1.104 2.367 2.367 2.367H36.19c1.262 0 3.146.632 4.093 1.578l50.197 44.181c.947.789 2.516 1.578 3.304 1.578s1.578-1.104 1.578-2.367V54.631c.001-1.262-.631-2.366-1.577-2.366z"/><g><path d="m148.913 74.454-8.925 8.925c11.488 11.488 18.491 27.236 18.491 44.624s-7.054 33.281-18.491 44.575l8.875 8.975c13.811-13.635 22.239-32.753 22.239-53.55 0-20.797-8.432-39.793-22.189-53.55v.001z"/><path d="m121.989 101.229-8.778 9.073c4.641 4.516 7.397 10.706 7.397 17.702 0 6.995-2.755 13.186-7.397 17.702l8.778 9.073c7.035-6.844 11.243-16.413 11.243-26.775 0-10.361-4.208-19.929-11.243-26.775z"/></g></svg>
